<svg viewBox="0 0 1024 1024" xmlns="http://www.w3.org/2000/svg" fill-rule="evenodd" clip-rule="evenodd" stroke-linejoin="round" stroke-miterlimit="2">
  <path fill="none" d="M0 0h1024v1024H0z"/>
  <g fill-rule="nonzero">
    <path d="M446 742l58-56c5-4 13-4 18 1 29 31 71 51 114 51 34 0 58-14 58-40 0-27-21-39-60-63l-42-25c-50-31-80-70-80-134 0-94 87-169 188-169 57-1 113 27 153 73 5 5 5 12 0 17l-56 57c-5 5-12 5-17 1-25-23-51-37-82-37-37 0-54 19-54 43s21 34 64 61l47 29c51 33 72 63 72 124 0 96-78 175-204 175-60 0-127-27-178-91-4-5-4-12 1-17M175 1011l132-132c8-8 7-21-1-29a425 425 0 01-132-287v-3H2a624 624 0 00143 449c8 9 22 10 30 2" fill="#f0882b"/>
    <path d="M346 177A478 478 0 01649 69h7V12h-4a571 571 0 00-382 90l76 75z" fill="#dddb00"/>
    <path d="M698 71a511 511 0 01326 154A541 541 0 00698 20v51z" fill="#93c01f"/>
    <path d="M297 223l17-17-79-79-16 12A598 598 0 007 517h166a450 450 0 01124-294" fill="#f8b133"/>
  </g>
</svg>
