<svg viewBox="0 0 3333 1024" xmlns="http://www.w3.org/2000/svg" fill-rule="evenodd" clip-rule="evenodd" stroke-linejoin="round" stroke-miterlimit="2">
  <path fill="none" d="M1 0h3332v1024H1z"/>
  <clipPath id="a">
    <path d="M1 0h3332v1024H1z"/>
  </clipPath>
  <g fill-rule="nonzero" clip-path="url(#a)">
    <path d="M179 1018l133-133c8-9 8-22 0-30a432 432 0 01-135-291v-4H3a633 633 0 00145 456c8 10 22 11 31 2" fill="#f0882b"/>
    <path d="M352 172A485 485 0 01660 62h7V5l-4-1a579 579 0 00-387 91l76 77z" fill="#dddb00"/>
    <path d="M710 64a519 519 0 01330 157A550 550 0 00710 12v52z" fill="#93c01f"/>
    <path d="M303 219l17-18-80-80-16 12A607 607 0 008 517h169a457 457 0 01126-298" fill="#f8b133"/>
    <path d="M389 624l49-47c19 24 49 39 80 39 21 0 37-9 37-26s-13-25-39-40l-27-17c-32-20-52-45-52-87 0-60 57-109 122-109 40 0 78 20 104 53l-46 48c-18-18-37-29-59-29-24 0-35 12-35 28s13 22 41 40l31 18c33 21 47 41 47 81 0 61-52 112-133 112-40 0-86-18-120-64M831 521c0-27-9-38-24-38-13 0-31 6-43 29l-18 89c5 13 16 20 27 20 30 0 58-41 58-100M698 421h68l2 28h1c23-20 51-34 76-34 46 0 73 34 73 96 0 99-67 177-139 177-20 0-38-10-49-28h-1l-6 49-13 65h-83l71-353zM1088 522l2-12c0-18-8-31-29-31-20 0-41 12-53 43h80zm-164 54c0-96 77-161 147-161 64 0 86 45 86 99 0 26-9 55-13 63h-142c0 34 24 48 54 48 15 0 35-7 46-15l27 49c-22 18-54 29-90 29-70 0-115-42-115-112M1326 522l2-12c0-18-7-31-29-31-20 0-40 12-52 43h79zm-163 54c0-96 77-161 147-161 63 0 86 45 86 99 0 26-9 55-13 63h-142c0 34 24 48 54 48 15 0 34-7 46-15l27 49c-22 18-54 29-91 29-69 0-114-42-114-112M1559 586l16-83c-6-14-18-20-28-20-30 0-58 41-58 99 0 27 9 39 24 39 13 0 31-7 46-35m-157 6c0-99 67-177 139-177 22 0 41 11 50 29h1l5-49 15-76h83l-73 363h-67v-32h-1c-23 24-54 38-79 38-46 0-73-34-73-96M1648 638l42-39c20 22 41 29 56 29 16 0 30-7 30-18 0-13-17-19-44-34-26-15-50-39-50-73 0-50 47-88 105-88 36 0 66 18 88 42l-42 42c-14-12-30-22-46-22-17 0-27 8-27 18 0 15 22 21 42 33 25 13 52 34 52 73 0 52-47 87-113 87-30 0-70-16-93-50M1867 580c0-88 67-165 157-165 33 0 58 17 70 32l-45 49c-10-9-18-14-31-14-37 0-65 44-65 97 0 26 12 43 37 43 16 0 26-8 36-15l34 51c-20 15-47 30-89 30-58 0-104-39-104-108" fill="#f0882b"/>
    <path d="M2226 586l17-83c-6-14-19-20-28-20-30 0-59 41-59 99 0 27 10 39 24 39s33-7 46-35m-156 6c0-99 67-177 139-177 21 0 44 12 54 32h1l11-26h67l-52 261h-68v-32h-1c-23 24-53 38-78 38-46 0-73-34-73-96M2380 421h67v34h2c24-21 52-40 86-40 43 0 61 23 61 68 0 11-1 25-4 37l-32 162h-84l31-151c2-10 4-17 4-23 0-15-8-22-22-22-15 0-27 9-46 29l-32 167h-84l53-261zM2649 421h68v34h2c24-21 52-40 86-40 42 0 61 23 61 68 0 11-1 25-4 37l-32 162h-84l31-151c2-10 4-17 4-23 0-15-9-22-22-22-15 0-27 9-46 29l-32 167h-84l52-261zM3040 522l2-12c0-18-7-31-29-31-20 0-40 12-52 43h79zm-163 54c0-96 77-161 147-161 63 0 86 45 86 99 0 26-9 55-13 63h-142c0 34 24 48 54 48 15 0 34-7 46-15l27 49c-22 18-54 29-91 29-69 0-114-42-114-112M3158 421h68l-2 51h2c20-33 49-57 78-57 15 0 23 2 28 5l-27 72c-7-4-19-4-27-4-22 0-41 14-60 48l-29 146h-83l52-261z" fill="#f0882b"/>
  </g>
</svg>
